<?xml version="1.0" encoding="utf-8" standalone="no"?>
<!DOCTYPE svg PUBLIC "-//W3C//DTD SVG 1.1//EN"
  "http://www.w3.org/Graphics/SVG/1.1/DTD/svg11.dtd">
<svg role="img" aria-labelledby="ownership-topology-title ownership-topology-description" xmlns:xlink="http://www.w3.org/1999/xlink" width="857.99952pt" height="351.99976pt" viewBox="0 0 857.99952 351.99976" xmlns="http://www.w3.org/2000/svg" version="1.1">
 <title id="ownership-topology-title">Equal aggregate learning can imply different firm boundaries</title>
 <desc id="ownership-topology-description">Two directed learning networks have the same total edge weight. When learning is diffuse across complementary clinic, laboratory, and payer links, the intermediary remains a platform. When the same learning weight is concentrated within types, the selected firm owns the two clinics.</desc>
 <metadata>
  <rdf:RDF xmlns:dc="http://purl.org/dc/elements/1.1/" xmlns:cc="http://creativecommons.org/ns#" xmlns:rdf="http://www.w3.org/1999/02/22-rdf-syntax-ns#">
   <cc:Work>
    <dc:type rdf:resource="http://purl.org/dc/dcmitype/StillImage"/>
    <dc:date>2026-07-23T11:22:53.533919</dc:date>
    <dc:format>image/svg+xml</dc:format>
    <dc:creator>
     <cc:Agent>
      <dc:title>Matplotlib v3.9.4, https://matplotlib.org/</dc:title>
     </cc:Agent>
    </dc:creator>
   </cc:Work>
  </rdf:RDF>
 </metadata>
 <defs>
  <style type="text/css">*{stroke-linejoin: round; stroke-linecap: butt}</style>
 </defs>
 <g id="figure_1">
  <g id="patch_1">
   <path d="M 0 351.99976 
L 857.99952 351.99976 
L 857.99952 -0 
L 0 -0 
z
" style="fill: #ffffff"/>
  </g>
  <g id="axes_1">
   <g id="patch_2">
    <path d="M 81.431424 93.026209 
Q 136.331748 101.81026 188.288093 93.497245 
" style="fill: none; opacity: 0.675; stroke: #6a7278; stroke-width: 2.666667; stroke-linecap: round"/>
    <path d="M 184.022349 92.154326 
L 188.288093 93.497245 
L 184.654311 96.104088 
z
" style="fill: #6a7278; opacity: 0.675; stroke: #6a7278; stroke-width: 2.666667; stroke-linecap: round"/>
   </g>
   <g id="patch_3">
    <path d="M 75.542998 107.242126 
Q 127.176272 178.54522 196.894666 229.030953 
" style="fill: none; opacity: 0.4825; stroke: #6a7278; stroke-width: 1.75; stroke-linecap: round"/>
    <path d="M 194.827917 225.065029 
L 196.894666 229.030953 
L 192.481878 228.304798 
z
" style="fill: #6a7278; opacity: 0.4825; stroke: #6a7278; stroke-width: 1.75; stroke-linecap: round"/>
   </g>
   <g id="patch_4">
    <path d="M 81.431424 93.026209 
Q 213.656148 114.182164 343.120892 93.467805 
" style="fill: none; opacity: 0.64; stroke: #6a7278; stroke-width: 2.5; stroke-linecap: round"/>
    <path d="M 338.855148 92.124886 
L 343.120892 93.467805 
L 339.48711 96.074649 
z
" style="fill: #6a7278; opacity: 0.64; stroke: #6a7278; stroke-width: 2.5; stroke-linecap: round"/>
   </g>
   <g id="patch_5">
    <path d="M 79.308952 102.017144 
Q 203.133681 190.847928 346.729424 236.053996 
" style="fill: none; opacity: 0.462308; stroke: #6a7278; stroke-width: 1.653846; stroke-linecap: round"/>
    <path d="M 343.514599 232.945154 
L 346.729424 236.053996 
L 342.313456 236.760551 
z
" style="fill: #6a7278; opacity: 0.462308; stroke: #6a7278; stroke-width: 1.653846; stroke-linecap: round"/>
   </g>
   <g id="patch_6">
    <path d="M 75.542998 233.459091 
Q 146.846091 181.825816 197.331824 112.107423 
" style="fill: none; opacity: 0.4825; stroke: #6a7278; stroke-width: 1.75; stroke-linecap: round"/>
    <path d="M 193.365901 114.174172 
L 197.331824 112.107423 
L 196.605669 116.520211 
z
" style="fill: #6a7278; opacity: 0.4825; stroke: #6a7278; stroke-width: 1.75; stroke-linecap: round"/>
   </g>
   <g id="patch_7">
    <path d="M 81.431424 247.675008 
Q 136.331748 256.45906 188.288093 248.146045 
" style="fill: none; opacity: 0.675; stroke: #6a7278; stroke-width: 2.666667; stroke-linecap: round"/>
    <path d="M 184.022349 246.803126 
L 188.288093 248.146045 
L 184.654311 250.752888 
z
" style="fill: #6a7278; opacity: 0.675; stroke: #6a7278; stroke-width: 2.666667; stroke-linecap: round"/>
   </g>
   <g id="patch_8">
    <path d="M 79.308952 238.684073 
Q 224.668416 192.92276 346.990716 105.169805 
" style="fill: none; opacity: 0.462308; stroke: #6a7278; stroke-width: 1.653846; stroke-linecap: round"/>
    <path d="M 342.574748 105.87636 
L 346.990716 105.169805 
L 344.906379 109.126513 
z
" style="fill: #6a7278; opacity: 0.462308; stroke: #6a7278; stroke-width: 1.653846; stroke-linecap: round"/>
   </g>
   <g id="patch_9">
    <path d="M 81.431424 247.675008 
Q 213.656148 268.830964 343.120892 248.116605 
" style="fill: none; opacity: 0.64; stroke: #6a7278; stroke-width: 2.5; stroke-linecap: round"/>
    <path d="M 338.855148 246.773686 
L 343.120892 248.116605 
L 339.48711 250.723449 
z
" style="fill: #6a7278; opacity: 0.64; stroke: #6a7278; stroke-width: 2.5; stroke-linecap: round"/>
   </g>
   <g id="patch_10">
    <path d="M 195.871536 93.026209 
Q 140.971212 84.242157 89.934861 92.407973 
" style="fill: none; opacity: 0.85; stroke: #6a7278; stroke-width: 3.5; stroke-linecap: round"/>
    <path d="M 94.200604 93.750892 
L 89.934861 92.407973 
L 93.568642 89.80113 
z
" style="fill: #6a7278; opacity: 0.85; stroke: #6a7278; stroke-width: 3.5; stroke-linecap: round"/>
   </g>
   <g id="patch_11">
    <path d="M 201.759962 107.242126 
Q 130.456869 158.875401 80.286394 228.158437 
" style="fill: none; opacity: 0.583462; stroke: #6a7278; stroke-width: 2.230769; stroke-linecap: round"/>
    <path d="M 84.252318 226.091688 
L 80.286394 228.158437 
L 81.012549 223.745649 
z
" style="fill: #6a7278; opacity: 0.583462; stroke: #6a7278; stroke-width: 2.230769; stroke-linecap: round"/>
   </g>
   <g id="patch_12">
    <path d="M 236.080224 93.026209 
Q 290.980548 101.81026 343.856886 93.350046 
" style="fill: none; opacity: 0.5; stroke: #6a7278; stroke-width: 1.833333; stroke-linecap: round"/>
    <path d="M 339.591143 92.007127 
L 343.856886 93.350046 
L 340.223105 95.956889 
z
" style="fill: #6a7278; opacity: 0.5; stroke: #6a7278; stroke-width: 1.833333; stroke-linecap: round"/>
   </g>
   <g id="patch_13">
    <path d="M 230.191798 107.242126 
Q 281.825072 178.54522 351.978823 229.346211 
" style="fill: none; opacity: 0.381538; stroke: #6a7278; stroke-width: 1.269231; stroke-linecap: round"/>
    <path d="M 349.912074 225.380288 
L 351.978823 229.346211 
L 347.566035 228.620056 
z
" style="fill: #6a7278; opacity: 0.381538; stroke: #6a7278; stroke-width: 1.269231; stroke-linecap: round"/>
   </g>
   <g id="patch_14">
    <path d="M 201.759962 233.459091 
Q 150.126688 162.155997 80.843651 111.985523 
" style="fill: none; opacity: 0.583462; stroke: #6a7278; stroke-width: 2.230769; stroke-linecap: round"/>
    <path d="M 82.9104 115.951446 
L 80.843651 111.985523 
L 85.25644 112.711678 
z
" style="fill: #6a7278; opacity: 0.583462; stroke: #6a7278; stroke-width: 2.230769; stroke-linecap: round"/>
   </g>
   <g id="patch_15">
    <path d="M 195.871536 247.675008 
Q 140.971212 238.890957 89.934861 247.056773 
" style="fill: none; opacity: 0.85; stroke: #6a7278; stroke-width: 3.5; stroke-linecap: round"/>
    <path d="M 94.200604 248.399692 
L 89.934861 247.056773 
L 93.568642 244.44993 
z
" style="fill: #6a7278; opacity: 0.85; stroke: #6a7278; stroke-width: 3.5; stroke-linecap: round"/>
   </g>
   <g id="patch_16">
    <path d="M 230.191798 233.459091 
Q 301.494891 181.825816 352.295883 111.672066 
" style="fill: none; opacity: 0.381538; stroke: #6a7278; stroke-width: 1.269231; stroke-linecap: round"/>
    <path d="M 348.329959 113.738815 
L 352.295883 111.672066 
L 351.569728 116.084854 
z
" style="fill: #6a7278; opacity: 0.381538; stroke: #6a7278; stroke-width: 1.269231; stroke-linecap: round"/>
   </g>
   <g id="patch_17">
    <path d="M 236.080224 247.675008 
Q 290.980548 256.45906 343.856886 247.998846 
" style="fill: none; opacity: 0.5; stroke: #6a7278; stroke-width: 1.833333; stroke-linecap: round"/>
    <path d="M 339.591143 246.655927 
L 343.856886 247.998846 
L 340.223105 250.605689 
z
" style="fill: #6a7278; opacity: 0.5; stroke: #6a7278; stroke-width: 1.833333; stroke-linecap: round"/>
   </g>
   <g id="patch_18">
    <path d="M 350.520336 93.026209 
Q 218.295612 71.870253 88.462871 92.643491 
" style="fill: none; opacity: 0.57; stroke: #6a7278; stroke-width: 2.166667; stroke-linecap: round"/>
    <path d="M 92.728615 93.98641 
L 88.462871 92.643491 
L 92.096653 90.036648 
z
" style="fill: #6a7278; opacity: 0.57; stroke: #6a7278; stroke-width: 2.166667; stroke-linecap: round"/>
   </g>
   <g id="patch_19">
    <path d="M 352.642808 102.017144 
Q 207.283344 147.778457 84.786343 235.656741 
" style="fill: none; opacity: 0.421923; stroke: #6a7278; stroke-width: 1.461538; stroke-linecap: round"/>
    <path d="M 89.202311 234.950186 
L 84.786343 235.656741 
L 86.87068 231.700033 
z
" style="fill: #6a7278; opacity: 0.421923; stroke: #6a7278; stroke-width: 1.461538; stroke-linecap: round"/>
   </g>
   <g id="patch_20">
    <path d="M 350.520336 93.026209 
Q 295.620012 84.242157 242.375676 92.76125 
" style="fill: none; opacity: 0.43; stroke: #6a7278; stroke-width: 1.5; stroke-linecap: round"/>
    <path d="M 246.64142 94.10417 
L 242.375676 92.76125 
L 246.009458 90.154407 
z
" style="fill: #6a7278; opacity: 0.43; stroke: #6a7278; stroke-width: 1.5; stroke-linecap: round"/>
   </g>
   <g id="patch_21">
    <path d="M 352.642808 238.684073 
Q 228.818079 149.853289 85.017252 104.582658 
" style="fill: none; opacity: 0.421923; stroke: #6a7278; stroke-width: 1.461538; stroke-linecap: round"/>
    <path d="M 88.232077 107.6915 
L 85.017252 104.582658 
L 89.43322 103.876103 
z
" style="fill: #6a7278; opacity: 0.421923; stroke: #6a7278; stroke-width: 1.461538; stroke-linecap: round"/>
   </g>
   <g id="patch_22">
    <path d="M 350.520336 247.675008 
Q 218.295612 226.519053 88.462871 247.292291 
" style="fill: none; opacity: 0.57; stroke: #6a7278; stroke-width: 2.166667; stroke-linecap: round"/>
    <path d="M 92.728615 248.63521 
L 88.462871 247.292291 
L 92.096653 244.685448 
z
" style="fill: #6a7278; opacity: 0.57; stroke: #6a7278; stroke-width: 2.166667; stroke-linecap: round"/>
   </g>
   <g id="patch_23">
    <path d="M 350.520336 247.675008 
Q 295.620012 238.890957 242.375676 247.41005 
" style="fill: none; opacity: 0.43; stroke: #6a7278; stroke-width: 1.5; stroke-linecap: round"/>
    <path d="M 246.64142 248.75297 
L 242.375676 247.41005 
L 246.009458 244.803207 
z
" style="fill: #6a7278; opacity: 0.43; stroke: #6a7278; stroke-width: 1.5; stroke-linecap: round"/>
   </g>
   <g id="patch_24">
    <path d="M 61.32708 111.584065 
C 66.248681 111.584065 70.969368 109.628692 74.449466 106.148594 
C 77.929563 102.668497 79.884936 97.947809 79.884936 93.026209 
C 79.884936 88.104608 77.929563 83.38392 74.449466 79.903823 
C 70.969368 76.423725 66.248681 74.468353 61.32708 74.468353 
C 56.405479 74.468353 51.684792 76.423725 48.204694 79.903823 
C 44.724597 83.38392 42.769224 88.104608 42.769224 93.026209 
C 42.769224 97.947809 44.724597 102.668497 48.204694 106.148594 
C 51.684792 109.628692 56.405479 111.584065 61.32708 111.584065 
z
" clip-path="url(#p8a1217b987)" style="fill: #ffffff; stroke: #4c78a8; stroke-width: 1.7; stroke-linejoin: miter"/>
   </g>
   <g id="text_1">
    <!-- clinic east -->
    <g transform="translate(41.223955 127.048945) scale(0.08 -0.08)">
     <defs>
      <path id="DejaVuSans-63" d="M 3122 3366 
L 3122 2828 
Q 2878 2963 2633 3030 
Q 2388 3097 2138 3097 
Q 1578 3097 1268 2742 
Q 959 2388 959 1747 
Q 959 1106 1268 751 
Q 1578 397 2138 397 
Q 2388 397 2633 464 
Q 2878 531 3122 666 
L 3122 134 
Q 2881 22 2623 -34 
Q 2366 -91 2075 -91 
Q 1284 -91 818 406 
Q 353 903 353 1747 
Q 353 2603 823 3093 
Q 1294 3584 2113 3584 
Q 2378 3584 2631 3529 
Q 2884 3475 3122 3366 
z
" transform="scale(0.015625)"/>
      <path id="DejaVuSans-6c" d="M 603 4863 
L 1178 4863 
L 1178 0 
L 603 0 
L 603 4863 
z
" transform="scale(0.015625)"/>
      <path id="DejaVuSans-69" d="M 603 3500 
L 1178 3500 
L 1178 0 
L 603 0 
L 603 3500 
z
M 603 4863 
L 1178 4863 
L 1178 4134 
L 603 4134 
L 603 4863 
z
" transform="scale(0.015625)"/>
      <path id="DejaVuSans-6e" d="M 3513 2113 
L 3513 0 
L 2938 0 
L 2938 2094 
Q 2938 2591 2744 2837 
Q 2550 3084 2163 3084 
Q 1697 3084 1428 2787 
Q 1159 2491 1159 1978 
L 1159 0 
L 581 0 
L 581 3500 
L 1159 3500 
L 1159 2956 
Q 1366 3272 1645 3428 
Q 1925 3584 2291 3584 
Q 2894 3584 3203 3211 
Q 3513 2838 3513 2113 
z
" transform="scale(0.015625)"/>
      <path id="DejaVuSans-20" transform="scale(0.015625)"/>
      <path id="DejaVuSans-65" d="M 3597 1894 
L 3597 1613 
L 953 1613 
Q 991 1019 1311 708 
Q 1631 397 2203 397 
Q 2534 397 2845 478 
Q 3156 559 3463 722 
L 3463 178 
Q 3153 47 2828 -22 
Q 2503 -91 2169 -91 
Q 1331 -91 842 396 
Q 353 884 353 1716 
Q 353 2575 817 3079 
Q 1281 3584 2069 3584 
Q 2775 3584 3186 3129 
Q 3597 2675 3597 1894 
z
M 3022 2063 
Q 3016 2534 2758 2815 
Q 2500 3097 2075 3097 
Q 1594 3097 1305 2825 
Q 1016 2553 972 2059 
L 3022 2063 
z
" transform="scale(0.015625)"/>
      <path id="DejaVuSans-61" d="M 2194 1759 
Q 1497 1759 1228 1600 
Q 959 1441 959 1056 
Q 959 750 1161 570 
Q 1363 391 1709 391 
Q 2188 391 2477 730 
Q 2766 1069 2766 1631 
L 2766 1759 
L 2194 1759 
z
M 3341 1997 
L 3341 0 
L 2766 0 
L 2766 531 
Q 2569 213 2275 61 
Q 1981 -91 1556 -91 
Q 1019 -91 701 211 
Q 384 513 384 1019 
Q 384 1609 779 1909 
Q 1175 2209 1959 2209 
L 2766 2209 
L 2766 2266 
Q 2766 2663 2505 2880 
Q 2244 3097 1772 3097 
Q 1472 3097 1187 3025 
Q 903 2953 641 2809 
L 641 3341 
Q 956 3463 1253 3523 
Q 1550 3584 1831 3584 
Q 2591 3584 2966 3190 
Q 3341 2797 3341 1997 
z
" transform="scale(0.015625)"/>
      <path id="DejaVuSans-73" d="M 2834 3397 
L 2834 2853 
Q 2591 2978 2328 3040 
Q 2066 3103 1784 3103 
Q 1356 3103 1142 2972 
Q 928 2841 928 2578 
Q 928 2378 1081 2264 
Q 1234 2150 1697 2047 
L 1894 2003 
Q 2506 1872 2764 1633 
Q 3022 1394 3022 966 
Q 3022 478 2636 193 
Q 2250 -91 1575 -91 
Q 1294 -91 989 -36 
Q 684 19 347 128 
L 347 722 
Q 666 556 975 473 
Q 1284 391 1588 391 
Q 1994 391 2212 530 
Q 2431 669 2431 922 
Q 2431 1156 2273 1281 
Q 2116 1406 1581 1522 
L 1381 1569 
Q 847 1681 609 1914 
Q 372 2147 372 2553 
Q 372 3047 722 3315 
Q 1072 3584 1716 3584 
Q 2034 3584 2315 3537 
Q 2597 3491 2834 3397 
z
" transform="scale(0.015625)"/>
      <path id="DejaVuSans-74" d="M 1172 4494 
L 1172 3500 
L 2356 3500 
L 2356 3053 
L 1172 3053 
L 1172 1153 
Q 1172 725 1289 603 
Q 1406 481 1766 481 
L 2356 481 
L 2356 0 
L 1766 0 
Q 1100 0 847 248 
Q 594 497 594 1153 
L 594 3053 
L 172 3053 
L 172 3500 
L 594 3500 
L 594 4494 
L 1172 4494 
z
" transform="scale(0.015625)"/>
     </defs>
     <use xlink:href="#DejaVuSans-63"/>
     <use xlink:href="#DejaVuSans-6c" x="54.980469"/>
     <use xlink:href="#DejaVuSans-69" x="82.763672"/>
     <use xlink:href="#DejaVuSans-6e" x="110.546875"/>
     <use xlink:href="#DejaVuSans-69" x="173.925781"/>
     <use xlink:href="#DejaVuSans-63" x="201.708984"/>
     <use xlink:href="#DejaVuSans-20" x="256.689453"/>
     <use xlink:href="#DejaVuSans-65" x="288.476562"/>
     <use xlink:href="#DejaVuSans-61" x="350"/>
     <use xlink:href="#DejaVuSans-73" x="411.279297"/>
     <use xlink:href="#DejaVuSans-74" x="463.378906"/>
    </g>
   </g>
   <g id="patch_25">
    <path d="M 61.32708 266.232864 
C 66.248681 266.232864 70.969368 264.277492 74.449466 260.797394 
C 77.929563 257.317297 79.884936 252.596609 79.884936 247.675008 
C 79.884936 242.753408 77.929563 238.03272 74.449466 234.552623 
C 70.969368 231.072525 66.248681 229.117152 61.32708 229.117152 
C 56.405479 229.117152 51.684792 231.072525 48.204694 234.552623 
C 44.724597 238.03272 42.769224 242.753408 42.769224 247.675008 
C 42.769224 252.596609 44.724597 257.317297 48.204694 260.797394 
C 51.684792 264.277492 56.405479 266.232864 61.32708 266.232864 
z
" clip-path="url(#p8a1217b987)" style="fill: #ffffff; stroke: #4c78a8; stroke-width: 1.7; stroke-linejoin: miter"/>
   </g>
   <g id="text_2">
    <!-- clinic west -->
    <g transform="translate(40.403955 281.697744) scale(0.08 -0.08)">
     <defs>
      <path id="DejaVuSans-77" d="M 269 3500 
L 844 3500 
L 1563 769 
L 2278 3500 
L 2956 3500 
L 3675 769 
L 4391 3500 
L 4966 3500 
L 4050 0 
L 3372 0 
L 2619 2869 
L 1863 0 
L 1184 0 
L 269 3500 
z
" transform="scale(0.015625)"/>
     </defs>
     <use xlink:href="#DejaVuSans-63"/>
     <use xlink:href="#DejaVuSans-6c" x="54.980469"/>
     <use xlink:href="#DejaVuSans-69" x="82.763672"/>
     <use xlink:href="#DejaVuSans-6e" x="110.546875"/>
     <use xlink:href="#DejaVuSans-69" x="173.925781"/>
     <use xlink:href="#DejaVuSans-63" x="201.708984"/>
     <use xlink:href="#DejaVuSans-20" x="256.689453"/>
     <use xlink:href="#DejaVuSans-77" x="288.476562"/>
     <use xlink:href="#DejaVuSans-65" x="370.263672"/>
     <use xlink:href="#DejaVuSans-73" x="431.787109"/>
     <use xlink:href="#DejaVuSans-74" x="483.886719"/>
    </g>
   </g>
   <g id="patch_26">
    <path d="M 215.97588 111.584065 
C 220.897481 111.584065 225.618168 109.628692 229.098266 106.148594 
C 232.578363 102.668497 234.533736 97.947809 234.533736 93.026209 
C 234.533736 88.104608 232.578363 83.38392 229.098266 79.903823 
C 225.618168 76.423725 220.897481 74.468353 215.97588 74.468353 
C 211.054279 74.468353 206.333592 76.423725 202.853494 79.903823 
C 199.373397 83.38392 197.418024 88.104608 197.418024 93.026209 
C 197.418024 97.947809 199.373397 102.668497 202.853494 106.148594 
C 206.333592 109.628692 211.054279 111.584065 215.97588 111.584065 
z
" clip-path="url(#p8a1217b987)" style="fill: #ffffff; stroke: #59a14f; stroke-width: 1.7; stroke-linejoin: miter"/>
   </g>
   <g id="text_3">
    <!-- lab east -->
    <g transform="translate(200.03838 127.048945) scale(0.08 -0.08)">
     <defs>
      <path id="DejaVuSans-62" d="M 3116 1747 
Q 3116 2381 2855 2742 
Q 2594 3103 2138 3103 
Q 1681 3103 1420 2742 
Q 1159 2381 1159 1747 
Q 1159 1113 1420 752 
Q 1681 391 2138 391 
Q 2594 391 2855 752 
Q 3116 1113 3116 1747 
z
M 1159 2969 
Q 1341 3281 1617 3432 
Q 1894 3584 2278 3584 
Q 2916 3584 3314 3078 
Q 3713 2572 3713 1747 
Q 3713 922 3314 415 
Q 2916 -91 2278 -91 
Q 1894 -91 1617 61 
Q 1341 213 1159 525 
L 1159 0 
L 581 0 
L 581 4863 
L 1159 4863 
L 1159 2969 
z
" transform="scale(0.015625)"/>
     </defs>
     <use xlink:href="#DejaVuSans-6c"/>
     <use xlink:href="#DejaVuSans-61" x="27.783203"/>
     <use xlink:href="#DejaVuSans-62" x="89.0625"/>
     <use xlink:href="#DejaVuSans-20" x="152.539062"/>
     <use xlink:href="#DejaVuSans-65" x="184.326172"/>
     <use xlink:href="#DejaVuSans-61" x="245.849609"/>
     <use xlink:href="#DejaVuSans-73" x="307.128906"/>
     <use xlink:href="#DejaVuSans-74" x="359.228516"/>
    </g>
   </g>
   <g id="patch_27">
    <path d="M 215.97588 266.232864 
C 220.897481 266.232864 225.618168 264.277492 229.098266 260.797394 
C 232.578363 257.317297 234.533736 252.596609 234.533736 247.675008 
C 234.533736 242.753408 232.578363 238.03272 229.098266 234.552623 
C 225.618168 231.072525 220.897481 229.117152 215.97588 229.117152 
C 211.054279 229.117152 206.333592 231.072525 202.853494 234.552623 
C 199.373397 238.03272 197.418024 242.753408 197.418024 247.675008 
C 197.418024 252.596609 199.373397 257.317297 202.853494 260.797394 
C 206.333592 264.277492 211.054279 266.232864 215.97588 266.232864 
z
" clip-path="url(#p8a1217b987)" style="fill: #ffffff; stroke: #59a14f; stroke-width: 1.7; stroke-linejoin: miter"/>
   </g>
   <g id="text_4">
    <!-- lab west -->
    <g transform="translate(199.21838 281.697744) scale(0.08 -0.08)">
     <use xlink:href="#DejaVuSans-6c"/>
     <use xlink:href="#DejaVuSans-61" x="27.783203"/>
     <use xlink:href="#DejaVuSans-62" x="89.0625"/>
     <use xlink:href="#DejaVuSans-20" x="152.539062"/>
     <use xlink:href="#DejaVuSans-77" x="184.326172"/>
     <use xlink:href="#DejaVuSans-65" x="266.113281"/>
     <use xlink:href="#DejaVuSans-73" x="327.636719"/>
     <use xlink:href="#DejaVuSans-74" x="379.736328"/>
    </g>
   </g>
   <g id="patch_28">
    <path d="M 370.62468 111.584065 
C 375.546281 111.584065 380.266968 109.628692 383.747066 106.148594 
C 387.227163 102.668497 389.182536 97.947809 389.182536 93.026209 
C 389.182536 88.104608 387.227163 83.38392 383.747066 79.903823 
C 380.266968 76.423725 375.546281 74.468353 370.62468 74.468353 
C 365.703079 74.468353 360.982392 76.423725 357.502294 79.903823 
C 354.022197 83.38392 352.066824 88.104608 352.066824 93.026209 
C 352.066824 97.947809 354.022197 102.668497 357.502294 106.148594 
C 360.982392 109.628692 365.703079 111.584065 370.62468 111.584065 
z
" clip-path="url(#p8a1217b987)" style="fill: #ffffff; stroke: #b279a2; stroke-width: 1.7; stroke-linejoin: miter"/>
   </g>
   <g id="text_5">
    <!-- payer east -->
    <g transform="translate(349.325305 127.048945) scale(0.08 -0.08)">
     <defs>
      <path id="DejaVuSans-70" d="M 1159 525 
L 1159 -1331 
L 581 -1331 
L 581 3500 
L 1159 3500 
L 1159 2969 
Q 1341 3281 1617 3432 
Q 1894 3584 2278 3584 
Q 2916 3584 3314 3078 
Q 3713 2572 3713 1747 
Q 3713 922 3314 415 
Q 2916 -91 2278 -91 
Q 1894 -91 1617 61 
Q 1341 213 1159 525 
z
M 3116 1747 
Q 3116 2381 2855 2742 
Q 2594 3103 2138 3103 
Q 1681 3103 1420 2742 
Q 1159 2381 1159 1747 
Q 1159 1113 1420 752 
Q 1681 391 2138 391 
Q 2594 391 2855 752 
Q 3116 1113 3116 1747 
z
" transform="scale(0.015625)"/>
      <path id="DejaVuSans-79" d="M 2059 -325 
Q 1816 -950 1584 -1140 
Q 1353 -1331 966 -1331 
L 506 -1331 
L 506 -850 
L 844 -850 
Q 1081 -850 1212 -737 
Q 1344 -625 1503 -206 
L 1606 56 
L 191 3500 
L 800 3500 
L 1894 763 
L 2988 3500 
L 3597 3500 
L 2059 -325 
z
" transform="scale(0.015625)"/>
      <path id="DejaVuSans-72" d="M 2631 2963 
Q 2534 3019 2420 3045 
Q 2306 3072 2169 3072 
Q 1681 3072 1420 2755 
Q 1159 2438 1159 1844 
L 1159 0 
L 581 0 
L 581 3500 
L 1159 3500 
L 1159 2956 
Q 1341 3275 1631 3429 
Q 1922 3584 2338 3584 
Q 2397 3584 2469 3576 
Q 2541 3569 2628 3553 
L 2631 2963 
z
" transform="scale(0.015625)"/>
     </defs>
     <use xlink:href="#DejaVuSans-70"/>
     <use xlink:href="#DejaVuSans-61" x="63.476562"/>
     <use xlink:href="#DejaVuSans-79" x="124.755859"/>
     <use xlink:href="#DejaVuSans-65" x="183.935547"/>
     <use xlink:href="#DejaVuSans-72" x="245.458984"/>
     <use xlink:href="#DejaVuSans-20" x="286.572266"/>
     <use xlink:href="#DejaVuSans-65" x="318.359375"/>
     <use xlink:href="#DejaVuSans-61" x="379.882812"/>
     <use xlink:href="#DejaVuSans-73" x="441.162109"/>
     <use xlink:href="#DejaVuSans-74" x="493.261719"/>
    </g>
   </g>
   <g id="patch_29">
    <path d="M 370.62468 266.232864 
C 375.546281 266.232864 380.266968 264.277492 383.747066 260.797394 
C 387.227163 257.317297 389.182536 252.596609 389.182536 247.675008 
C 389.182536 242.753408 387.227163 238.03272 383.747066 234.552623 
C 380.266968 231.072525 375.546281 229.117152 370.62468 229.117152 
C 365.703079 229.117152 360.982392 231.072525 357.502294 234.552623 
C 354.022197 238.03272 352.066824 242.753408 352.066824 247.675008 
C 352.066824 252.596609 354.022197 257.317297 357.502294 260.797394 
C 360.982392 264.277492 365.703079 266.232864 370.62468 266.232864 
z
" clip-path="url(#p8a1217b987)" style="fill: #ffffff; stroke: #b279a2; stroke-width: 1.7; stroke-linejoin: miter"/>
   </g>
   <g id="text_6">
    <!-- payer west -->
    <g transform="translate(348.505305 281.697744) scale(0.08 -0.08)">
     <use xlink:href="#DejaVuSans-70"/>
     <use xlink:href="#DejaVuSans-61" x="63.476562"/>
     <use xlink:href="#DejaVuSans-79" x="124.755859"/>
     <use xlink:href="#DejaVuSans-65" x="183.935547"/>
     <use xlink:href="#DejaVuSans-72" x="245.458984"/>
     <use xlink:href="#DejaVuSans-20" x="286.572266"/>
     <use xlink:href="#DejaVuSans-77" x="318.359375"/>
     <use xlink:href="#DejaVuSans-65" x="400.146484"/>
     <use xlink:href="#DejaVuSans-73" x="461.669922"/>
     <use xlink:href="#DejaVuSans-74" x="513.769531"/>
    </g>
   </g>
   <g id="text_7">
    <!-- Selected owner: none (neutral platform) -->
    <g transform="translate(113.225411 303.348576) scale(0.09 -0.09)">
     <defs>
      <path id="DejaVuSans-Bold-53" d="M 3834 4519 
L 3834 3531 
Q 3450 3703 3084 3790 
Q 2719 3878 2394 3878 
Q 1963 3878 1756 3759 
Q 1550 3641 1550 3391 
Q 1550 3203 1689 3098 
Q 1828 2994 2194 2919 
L 2706 2816 
Q 3484 2659 3812 2340 
Q 4141 2022 4141 1434 
Q 4141 663 3683 286 
Q 3225 -91 2284 -91 
Q 1841 -91 1394 -6 
Q 947 78 500 244 
L 500 1259 
Q 947 1022 1364 901 
Q 1781 781 2169 781 
Q 2563 781 2772 912 
Q 2981 1044 2981 1288 
Q 2981 1506 2839 1625 
Q 2697 1744 2272 1838 
L 1806 1941 
Q 1106 2091 782 2419 
Q 459 2747 459 3303 
Q 459 4000 909 4375 
Q 1359 4750 2203 4750 
Q 2588 4750 2994 4692 
Q 3400 4634 3834 4519 
z
" transform="scale(0.015625)"/>
      <path id="DejaVuSans-Bold-65" d="M 4031 1759 
L 4031 1441 
L 1416 1441 
Q 1456 1047 1700 850 
Q 1944 653 2381 653 
Q 2734 653 3104 758 
Q 3475 863 3866 1075 
L 3866 213 
Q 3469 63 3072 -14 
Q 2675 -91 2278 -91 
Q 1328 -91 801 392 
Q 275 875 275 1747 
Q 275 2603 792 3093 
Q 1309 3584 2216 3584 
Q 3041 3584 3536 3087 
Q 4031 2591 4031 1759 
z
M 2881 2131 
Q 2881 2450 2695 2645 
Q 2509 2841 2209 2841 
Q 1884 2841 1681 2658 
Q 1478 2475 1428 2131 
L 2881 2131 
z
" transform="scale(0.015625)"/>
      <path id="DejaVuSans-Bold-6c" d="M 538 4863 
L 1656 4863 
L 1656 0 
L 538 0 
L 538 4863 
z
" transform="scale(0.015625)"/>
      <path id="DejaVuSans-Bold-63" d="M 3366 3391 
L 3366 2478 
Q 3138 2634 2908 2709 
Q 2678 2784 2431 2784 
Q 1963 2784 1702 2511 
Q 1441 2238 1441 1747 
Q 1441 1256 1702 982 
Q 1963 709 2431 709 
Q 2694 709 2930 787 
Q 3166 866 3366 1019 
L 3366 103 
Q 3103 6 2833 -42 
Q 2563 -91 2291 -91 
Q 1344 -91 809 395 
Q 275 881 275 1747 
Q 275 2613 809 3098 
Q 1344 3584 2291 3584 
Q 2566 3584 2833 3536 
Q 3100 3488 3366 3391 
z
" transform="scale(0.015625)"/>
      <path id="DejaVuSans-Bold-74" d="M 1759 4494 
L 1759 3500 
L 2913 3500 
L 2913 2700 
L 1759 2700 
L 1759 1216 
Q 1759 972 1856 886 
Q 1953 800 2241 800 
L 2816 800 
L 2816 0 
L 1856 0 
Q 1194 0 917 276 
Q 641 553 641 1216 
L 641 2700 
L 84 2700 
L 84 3500 
L 641 3500 
L 641 4494 
L 1759 4494 
z
" transform="scale(0.015625)"/>
      <path id="DejaVuSans-Bold-64" d="M 2919 2988 
L 2919 4863 
L 4044 4863 
L 4044 0 
L 2919 0 
L 2919 506 
Q 2688 197 2409 53 
Q 2131 -91 1766 -91 
Q 1119 -91 703 423 
Q 288 938 288 1747 
Q 288 2556 703 3070 
Q 1119 3584 1766 3584 
Q 2128 3584 2408 3439 
Q 2688 3294 2919 2988 
z
M 2181 722 
Q 2541 722 2730 984 
Q 2919 1247 2919 1747 
Q 2919 2247 2730 2509 
Q 2541 2772 2181 2772 
Q 1825 2772 1636 2509 
Q 1447 2247 1447 1747 
Q 1447 1247 1636 984 
Q 1825 722 2181 722 
z
" transform="scale(0.015625)"/>
      <path id="DejaVuSans-Bold-20" transform="scale(0.015625)"/>
      <path id="DejaVuSans-Bold-6f" d="M 2203 2784 
Q 1831 2784 1636 2517 
Q 1441 2250 1441 1747 
Q 1441 1244 1636 976 
Q 1831 709 2203 709 
Q 2569 709 2762 976 
Q 2956 1244 2956 1747 
Q 2956 2250 2762 2517 
Q 2569 2784 2203 2784 
z
M 2203 3584 
Q 3106 3584 3614 3096 
Q 4122 2609 4122 1747 
Q 4122 884 3614 396 
Q 3106 -91 2203 -91 
Q 1297 -91 786 396 
Q 275 884 275 1747 
Q 275 2609 786 3096 
Q 1297 3584 2203 3584 
z
" transform="scale(0.015625)"/>
      <path id="DejaVuSans-Bold-77" d="M 225 3500 
L 1313 3500 
L 1900 1088 
L 2491 3500 
L 3425 3500 
L 4013 1113 
L 4603 3500 
L 5691 3500 
L 4769 0 
L 3547 0 
L 2956 2406 
L 2369 0 
L 1147 0 
L 225 3500 
z
" transform="scale(0.015625)"/>
      <path id="DejaVuSans-Bold-6e" d="M 4056 2131 
L 4056 0 
L 2931 0 
L 2931 347 
L 2931 1631 
Q 2931 2084 2911 2256 
Q 2891 2428 2841 2509 
Q 2775 2619 2662 2680 
Q 2550 2741 2406 2741 
Q 2056 2741 1856 2470 
Q 1656 2200 1656 1722 
L 1656 0 
L 538 0 
L 538 3500 
L 1656 3500 
L 1656 2988 
Q 1909 3294 2193 3439 
Q 2478 3584 2822 3584 
Q 3428 3584 3742 3212 
Q 4056 2841 4056 2131 
z
" transform="scale(0.015625)"/>
      <path id="DejaVuSans-Bold-72" d="M 3138 2547 
Q 2991 2616 2845 2648 
Q 2700 2681 2553 2681 
Q 2122 2681 1889 2404 
Q 1656 2128 1656 1613 
L 1656 0 
L 538 0 
L 538 3500 
L 1656 3500 
L 1656 2925 
Q 1872 3269 2151 3426 
Q 2431 3584 2822 3584 
Q 2878 3584 2943 3579 
Q 3009 3575 3134 3559 
L 3138 2547 
z
" transform="scale(0.015625)"/>
      <path id="DejaVuSans-Bold-3a" d="M 716 3500 
L 1844 3500 
L 1844 2291 
L 716 2291 
L 716 3500 
z
M 716 1209 
L 1844 1209 
L 1844 0 
L 716 0 
L 716 1209 
z
" transform="scale(0.015625)"/>
      <path id="DejaVuSans-Bold-28" d="M 2413 -844 
L 1484 -844 
Q 1006 -72 778 623 
Q 550 1319 550 2003 
Q 550 2688 779 3389 
Q 1009 4091 1484 4856 
L 2413 4856 
Q 2013 4116 1813 3408 
Q 1613 2700 1613 2009 
Q 1613 1319 1811 609 
Q 2009 -100 2413 -844 
z
" transform="scale(0.015625)"/>
      <path id="DejaVuSans-Bold-75" d="M 500 1363 
L 500 3500 
L 1625 3500 
L 1625 3150 
Q 1625 2866 1622 2436 
Q 1619 2006 1619 1863 
Q 1619 1441 1641 1255 
Q 1663 1069 1716 984 
Q 1784 875 1895 815 
Q 2006 756 2150 756 
Q 2500 756 2700 1025 
Q 2900 1294 2900 1772 
L 2900 3500 
L 4019 3500 
L 4019 0 
L 2900 0 
L 2900 506 
Q 2647 200 2364 54 
Q 2081 -91 1741 -91 
Q 1134 -91 817 281 
Q 500 653 500 1363 
z
" transform="scale(0.015625)"/>
      <path id="DejaVuSans-Bold-61" d="M 2106 1575 
Q 1756 1575 1579 1456 
Q 1403 1338 1403 1106 
Q 1403 894 1545 773 
Q 1688 653 1941 653 
Q 2256 653 2472 879 
Q 2688 1106 2688 1447 
L 2688 1575 
L 2106 1575 
z
M 3816 1997 
L 3816 0 
L 2688 0 
L 2688 519 
Q 2463 200 2181 54 
Q 1900 -91 1497 -91 
Q 953 -91 614 226 
Q 275 544 275 1050 
Q 275 1666 698 1953 
Q 1122 2241 2028 2241 
L 2688 2241 
L 2688 2328 
Q 2688 2594 2478 2717 
Q 2269 2841 1825 2841 
Q 1466 2841 1156 2769 
Q 847 2697 581 2553 
L 581 3406 
Q 941 3494 1303 3539 
Q 1666 3584 2028 3584 
Q 2975 3584 3395 3211 
Q 3816 2838 3816 1997 
z
" transform="scale(0.015625)"/>
      <path id="DejaVuSans-Bold-70" d="M 1656 506 
L 1656 -1331 
L 538 -1331 
L 538 3500 
L 1656 3500 
L 1656 2988 
Q 1888 3294 2169 3439 
Q 2450 3584 2816 3584 
Q 3463 3584 3878 3070 
Q 4294 2556 4294 1747 
Q 4294 938 3878 423 
Q 3463 -91 2816 -91 
Q 2450 -91 2169 54 
Q 1888 200 1656 506 
z
M 2400 2772 
Q 2041 2772 1848 2508 
Q 1656 2244 1656 1747 
Q 1656 1250 1848 986 
Q 2041 722 2400 722 
Q 2759 722 2948 984 
Q 3138 1247 3138 1747 
Q 3138 2247 2948 2509 
Q 2759 2772 2400 2772 
z
" transform="scale(0.015625)"/>
      <path id="DejaVuSans-Bold-66" d="M 2841 4863 
L 2841 4128 
L 2222 4128 
Q 1984 4128 1890 4042 
Q 1797 3956 1797 3744 
L 1797 3500 
L 2753 3500 
L 2753 2700 
L 1797 2700 
L 1797 0 
L 678 0 
L 678 2700 
L 122 2700 
L 122 3500 
L 678 3500 
L 678 3744 
Q 678 4316 997 4589 
Q 1316 4863 1984 4863 
L 2841 4863 
z
" transform="scale(0.015625)"/>
      <path id="DejaVuSans-Bold-6d" d="M 3781 2919 
Q 3994 3244 4286 3414 
Q 4578 3584 4928 3584 
Q 5531 3584 5847 3212 
Q 6163 2841 6163 2131 
L 6163 0 
L 5038 0 
L 5038 1825 
Q 5041 1866 5042 1909 
Q 5044 1953 5044 2034 
Q 5044 2406 4934 2573 
Q 4825 2741 4581 2741 
Q 4263 2741 4089 2478 
Q 3916 2216 3909 1719 
L 3909 0 
L 2784 0 
L 2784 1825 
Q 2784 2406 2684 2573 
Q 2584 2741 2328 2741 
Q 2006 2741 1831 2477 
Q 1656 2213 1656 1722 
L 1656 0 
L 531 0 
L 531 3500 
L 1656 3500 
L 1656 2988 
Q 1863 3284 2130 3434 
Q 2397 3584 2719 3584 
Q 3081 3584 3359 3409 
Q 3638 3234 3781 2919 
z
" transform="scale(0.015625)"/>
      <path id="DejaVuSans-Bold-29" d="M 513 -844 
Q 913 -100 1113 609 
Q 1313 1319 1313 2009 
Q 1313 2700 1113 3408 
Q 913 4116 513 4856 
L 1441 4856 
Q 1916 4091 2145 3389 
Q 2375 2688 2375 2003 
Q 2375 1319 2147 623 
Q 1919 -72 1441 -844 
L 513 -844 
z
" transform="scale(0.015625)"/>
     </defs>
     <use xlink:href="#DejaVuSans-Bold-53"/>
     <use xlink:href="#DejaVuSans-Bold-65" x="72.021484"/>
     <use xlink:href="#DejaVuSans-Bold-6c" x="139.84375"/>
     <use xlink:href="#DejaVuSans-Bold-65" x="174.121094"/>
     <use xlink:href="#DejaVuSans-Bold-63" x="241.943359"/>
     <use xlink:href="#DejaVuSans-Bold-74" x="301.220703"/>
     <use xlink:href="#DejaVuSans-Bold-65" x="349.023438"/>
     <use xlink:href="#DejaVuSans-Bold-64" x="416.845703"/>
     <use xlink:href="#DejaVuSans-Bold-20" x="488.427734"/>
     <use xlink:href="#DejaVuSans-Bold-6f" x="523.242188"/>
     <use xlink:href="#DejaVuSans-Bold-77" x="591.943359"/>
     <use xlink:href="#DejaVuSans-Bold-6e" x="684.326172"/>
     <use xlink:href="#DejaVuSans-Bold-65" x="755.517578"/>
     <use xlink:href="#DejaVuSans-Bold-72" x="823.339844"/>
     <use xlink:href="#DejaVuSans-Bold-3a" x="872.65625"/>
     <use xlink:href="#DejaVuSans-Bold-20" x="912.646484"/>
     <use xlink:href="#DejaVuSans-Bold-6e" x="947.460938"/>
     <use xlink:href="#DejaVuSans-Bold-6f" x="1018.652344"/>
     <use xlink:href="#DejaVuSans-Bold-6e" x="1087.353516"/>
     <use xlink:href="#DejaVuSans-Bold-65" x="1158.544922"/>
     <use xlink:href="#DejaVuSans-Bold-20" x="1226.367188"/>
     <use xlink:href="#DejaVuSans-Bold-28" x="1261.181641"/>
     <use xlink:href="#DejaVuSans-Bold-6e" x="1306.884766"/>
     <use xlink:href="#DejaVuSans-Bold-65" x="1378.076172"/>
     <use xlink:href="#DejaVuSans-Bold-75" x="1445.898438"/>
     <use xlink:href="#DejaVuSans-Bold-74" x="1517.089844"/>
     <use xlink:href="#DejaVuSans-Bold-72" x="1564.892578"/>
     <use xlink:href="#DejaVuSans-Bold-61" x="1614.208984"/>
     <use xlink:href="#DejaVuSans-Bold-6c" x="1681.689453"/>
     <use xlink:href="#DejaVuSans-Bold-20" x="1715.966797"/>
     <use xlink:href="#DejaVuSans-Bold-70" x="1750.78125"/>
     <use xlink:href="#DejaVuSans-Bold-6c" x="1822.363281"/>
     <use xlink:href="#DejaVuSans-Bold-61" x="1856.640625"/>
     <use xlink:href="#DejaVuSans-Bold-74" x="1924.121094"/>
     <use xlink:href="#DejaVuSans-Bold-66" x="1971.923828"/>
     <use xlink:href="#DejaVuSans-Bold-6f" x="2015.429688"/>
     <use xlink:href="#DejaVuSans-Bold-72" x="2084.130859"/>
     <use xlink:href="#DejaVuSans-Bold-6d" x="2133.447266"/>
     <use xlink:href="#DejaVuSans-Bold-29" x="2237.646484"/>
    </g>
   </g>
   <g id="text_8">
    <!-- A. Complementary across types -->
    <g transform="translate(120.330255 37.538593) scale(0.12 -0.12)">
     <defs>
      <path id="DejaVuSans-41" d="M 2188 4044 
L 1331 1722 
L 3047 1722 
L 2188 4044 
z
M 1831 4666 
L 2547 4666 
L 4325 0 
L 3669 0 
L 3244 1197 
L 1141 1197 
L 716 0 
L 50 0 
L 1831 4666 
z
" transform="scale(0.015625)"/>
      <path id="DejaVuSans-2e" d="M 684 794 
L 1344 794 
L 1344 0 
L 684 0 
L 684 794 
z
" transform="scale(0.015625)"/>
      <path id="DejaVuSans-43" d="M 4122 4306 
L 4122 3641 
Q 3803 3938 3442 4084 
Q 3081 4231 2675 4231 
Q 1875 4231 1450 3742 
Q 1025 3253 1025 2328 
Q 1025 1406 1450 917 
Q 1875 428 2675 428 
Q 3081 428 3442 575 
Q 3803 722 4122 1019 
L 4122 359 
Q 3791 134 3420 21 
Q 3050 -91 2638 -91 
Q 1578 -91 968 557 
Q 359 1206 359 2328 
Q 359 3453 968 4101 
Q 1578 4750 2638 4750 
Q 3056 4750 3426 4639 
Q 3797 4528 4122 4306 
z
" transform="scale(0.015625)"/>
      <path id="DejaVuSans-6f" d="M 1959 3097 
Q 1497 3097 1228 2736 
Q 959 2375 959 1747 
Q 959 1119 1226 758 
Q 1494 397 1959 397 
Q 2419 397 2687 759 
Q 2956 1122 2956 1747 
Q 2956 2369 2687 2733 
Q 2419 3097 1959 3097 
z
M 1959 3584 
Q 2709 3584 3137 3096 
Q 3566 2609 3566 1747 
Q 3566 888 3137 398 
Q 2709 -91 1959 -91 
Q 1206 -91 779 398 
Q 353 888 353 1747 
Q 353 2609 779 3096 
Q 1206 3584 1959 3584 
z
" transform="scale(0.015625)"/>
      <path id="DejaVuSans-6d" d="M 3328 2828 
Q 3544 3216 3844 3400 
Q 4144 3584 4550 3584 
Q 5097 3584 5394 3201 
Q 5691 2819 5691 2113 
L 5691 0 
L 5113 0 
L 5113 2094 
Q 5113 2597 4934 2840 
Q 4756 3084 4391 3084 
Q 3944 3084 3684 2787 
Q 3425 2491 3425 1978 
L 3425 0 
L 2847 0 
L 2847 2094 
Q 2847 2600 2669 2842 
Q 2491 3084 2119 3084 
Q 1678 3084 1418 2786 
Q 1159 2488 1159 1978 
L 1159 0 
L 581 0 
L 581 3500 
L 1159 3500 
L 1159 2956 
Q 1356 3278 1631 3431 
Q 1906 3584 2284 3584 
Q 2666 3584 2933 3390 
Q 3200 3197 3328 2828 
z
" transform="scale(0.015625)"/>
     </defs>
     <use xlink:href="#DejaVuSans-41"/>
     <use xlink:href="#DejaVuSans-2e" x="66.658203"/>
     <use xlink:href="#DejaVuSans-20" x="98.445312"/>
     <use xlink:href="#DejaVuSans-43" x="130.232422"/>
     <use xlink:href="#DejaVuSans-6f" x="200.056641"/>
     <use xlink:href="#DejaVuSans-6d" x="261.238281"/>
     <use xlink:href="#DejaVuSans-70" x="358.650391"/>
     <use xlink:href="#DejaVuSans-6c" x="422.126953"/>
     <use xlink:href="#DejaVuSans-65" x="449.910156"/>
     <use xlink:href="#DejaVuSans-6d" x="511.433594"/>
     <use xlink:href="#DejaVuSans-65" x="608.845703"/>
     <use xlink:href="#DejaVuSans-6e" x="670.369141"/>
     <use xlink:href="#DejaVuSans-74" x="733.748047"/>
     <use xlink:href="#DejaVuSans-61" x="772.957031"/>
     <use xlink:href="#DejaVuSans-72" x="834.236328"/>
     <use xlink:href="#DejaVuSans-79" x="875.349609"/>
     <use xlink:href="#DejaVuSans-20" x="934.529297"/>
     <use xlink:href="#DejaVuSans-61" x="966.316406"/>
     <use xlink:href="#DejaVuSans-63" x="1027.595703"/>
     <use xlink:href="#DejaVuSans-72" x="1082.576172"/>
     <use xlink:href="#DejaVuSans-6f" x="1121.439453"/>
     <use xlink:href="#DejaVuSans-73" x="1182.621094"/>
     <use xlink:href="#DejaVuSans-73" x="1234.720703"/>
     <use xlink:href="#DejaVuSans-20" x="1286.820312"/>
     <use xlink:href="#DejaVuSans-74" x="1318.607422"/>
     <use xlink:href="#DejaVuSans-79" x="1357.816406"/>
     <use xlink:href="#DejaVuSans-70" x="1416.996094"/>
     <use xlink:href="#DejaVuSans-65" x="1480.472656"/>
     <use xlink:href="#DejaVuSans-73" x="1541.996094"/>
    </g>
   </g>
  </g>
  <g id="axes_2">
   <g id="patch_30">
    <path d="M 487.37484 113.130553 
Q 478.590788 168.030877 486.756604 219.067228 
" style="fill: none; opacity: 0.85; stroke: #6a7278; stroke-width: 3.5; stroke-linecap: round"/>
    <path d="M 488.099524 214.801484 
L 486.756604 219.067228 
L 484.149761 215.433446 
z
" style="fill: #6a7278; opacity: 0.85; stroke: #6a7278; stroke-width: 3.5; stroke-linecap: round"/>
   </g>
   <g id="patch_31">
    <path d="M 487.37484 227.570664 
Q 496.158892 172.670341 487.993076 121.633989 
" style="fill: none; opacity: 0.85; stroke: #6a7278; stroke-width: 3.5; stroke-linecap: round"/>
    <path d="M 486.650156 125.899733 
L 487.993076 121.633989 
L 490.599919 125.267771 
z
" style="fill: #6a7278; opacity: 0.85; stroke: #6a7278; stroke-width: 3.5; stroke-linecap: round"/>
   </g>
   <g id="patch_32">
    <path d="M 642.02364 113.130553 
Q 633.239588 168.030877 641.405404 219.067228 
" style="fill: none; opacity: 0.85; stroke: #6a7278; stroke-width: 3.5; stroke-linecap: round"/>
    <path d="M 642.748324 214.801484 
L 641.405404 219.067228 
L 638.798561 215.433446 
z
" style="fill: #6a7278; opacity: 0.85; stroke: #6a7278; stroke-width: 3.5; stroke-linecap: round"/>
   </g>
   <g id="patch_33">
    <path d="M 642.02364 227.570664 
Q 650.807692 172.670341 642.641876 121.633989 
" style="fill: none; opacity: 0.85; stroke: #6a7278; stroke-width: 3.5; stroke-linecap: round"/>
    <path d="M 641.298956 125.899733 
L 642.641876 121.633989 
L 645.248719 125.267771 
z
" style="fill: #6a7278; opacity: 0.85; stroke: #6a7278; stroke-width: 3.5; stroke-linecap: round"/>
   </g>
   <g id="patch_34">
    <path d="M 796.67244 113.130553 
Q 787.888388 168.030877 796.054204 219.067228 
" style="fill: none; opacity: 0.85; stroke: #6a7278; stroke-width: 3.5; stroke-linecap: round"/>
    <path d="M 797.397124 214.801484 
L 796.054204 219.067228 
L 793.447361 215.433446 
z
" style="fill: #6a7278; opacity: 0.85; stroke: #6a7278; stroke-width: 3.5; stroke-linecap: round"/>
   </g>
   <g id="patch_35">
    <path d="M 796.67244 227.570664 
Q 805.456492 172.670341 797.290676 121.633989 
" style="fill: none; opacity: 0.85; stroke: #6a7278; stroke-width: 3.5; stroke-linecap: round"/>
    <path d="M 795.947756 125.899733 
L 797.290676 121.633989 
L 799.897519 125.267771 
z
" style="fill: #6a7278; opacity: 0.85; stroke: #6a7278; stroke-width: 3.5; stroke-linecap: round"/>
   </g>
   <g id="patch_36">
    <path d="M 487.37484 111.584065 
C 492.296441 111.584065 497.017128 109.628692 500.497226 106.148594 
C 503.977323 102.668497 505.932696 97.947809 505.932696 93.026209 
C 505.932696 88.104608 503.977323 83.38392 500.497226 79.903823 
C 497.017128 76.423725 492.296441 74.468353 487.37484 74.468353 
C 482.453239 74.468353 477.732552 76.423725 474.252454 79.903823 
C 470.772357 83.38392 468.816984 88.104608 468.816984 93.026209 
C 468.816984 97.947809 470.772357 102.668497 474.252454 106.148594 
C 477.732552 109.628692 482.453239 111.584065 487.37484 111.584065 
z
" clip-path="url(#p1846a00415)" style="fill: #4c78a8; stroke: #4c78a8; stroke-width: 3; stroke-linejoin: miter"/>
   </g>
   <g id="text_9">
    <!-- clinic east -->
    <g transform="translate(467.271715 127.048945) scale(0.08 -0.08)">
     <use xlink:href="#DejaVuSans-63"/>
     <use xlink:href="#DejaVuSans-6c" x="54.980469"/>
     <use xlink:href="#DejaVuSans-69" x="82.763672"/>
     <use xlink:href="#DejaVuSans-6e" x="110.546875"/>
     <use xlink:href="#DejaVuSans-69" x="173.925781"/>
     <use xlink:href="#DejaVuSans-63" x="201.708984"/>
     <use xlink:href="#DejaVuSans-20" x="256.689453"/>
     <use xlink:href="#DejaVuSans-65" x="288.476562"/>
     <use xlink:href="#DejaVuSans-61" x="350"/>
     <use xlink:href="#DejaVuSans-73" x="411.279297"/>
     <use xlink:href="#DejaVuSans-74" x="463.378906"/>
    </g>
   </g>
   <g id="patch_37">
    <path d="M 487.37484 266.232865 
C 492.296441 266.232865 497.017128 264.277492 500.497226 260.797394 
C 503.977323 257.317297 505.932696 252.596609 505.932696 247.675008 
C 505.932696 242.753408 503.977323 238.03272 500.497226 234.552623 
C 497.017128 231.072525 492.296441 229.117153 487.37484 229.117153 
C 482.453239 229.117153 477.732552 231.072525 474.252454 234.552623 
C 470.772357 238.03272 468.816984 242.753408 468.816984 247.675008 
C 468.816984 252.596609 470.772357 257.317297 474.252454 260.797394 
C 477.732552 264.277492 482.453239 266.232865 487.37484 266.232865 
z
" clip-path="url(#p1846a00415)" style="fill: #4c78a8; stroke: #4c78a8; stroke-width: 3; stroke-linejoin: miter"/>
   </g>
   <g id="text_10">
    <!-- clinic west -->
    <g transform="translate(466.451715 281.697744) scale(0.08 -0.08)">
     <use xlink:href="#DejaVuSans-63"/>
     <use xlink:href="#DejaVuSans-6c" x="54.980469"/>
     <use xlink:href="#DejaVuSans-69" x="82.763672"/>
     <use xlink:href="#DejaVuSans-6e" x="110.546875"/>
     <use xlink:href="#DejaVuSans-69" x="173.925781"/>
     <use xlink:href="#DejaVuSans-63" x="201.708984"/>
     <use xlink:href="#DejaVuSans-20" x="256.689453"/>
     <use xlink:href="#DejaVuSans-77" x="288.476562"/>
     <use xlink:href="#DejaVuSans-65" x="370.263672"/>
     <use xlink:href="#DejaVuSans-73" x="431.787109"/>
     <use xlink:href="#DejaVuSans-74" x="483.886719"/>
    </g>
   </g>
   <g id="patch_38">
    <path d="M 642.02364 111.584065 
C 646.945241 111.584065 651.665928 109.628692 655.146026 106.148594 
C 658.626123 102.668497 660.581496 97.947809 660.581496 93.026209 
C 660.581496 88.104608 658.626123 83.38392 655.146026 79.903823 
C 651.665928 76.423725 646.945241 74.468353 642.02364 74.468353 
C 637.102039 74.468353 632.381352 76.423725 628.901254 79.903823 
C 625.421157 83.38392 623.465784 88.104608 623.465784 93.026209 
C 623.465784 97.947809 625.421157 102.668497 628.901254 106.148594 
C 632.381352 109.628692 637.102039 111.584065 642.02364 111.584065 
z
" clip-path="url(#p1846a00415)" style="fill: #ffffff; stroke: #59a14f; stroke-width: 1.7; stroke-linejoin: miter"/>
   </g>
   <g id="text_11">
    <!-- lab east -->
    <g transform="translate(626.08614 127.048945) scale(0.08 -0.08)">
     <use xlink:href="#DejaVuSans-6c"/>
     <use xlink:href="#DejaVuSans-61" x="27.783203"/>
     <use xlink:href="#DejaVuSans-62" x="89.0625"/>
     <use xlink:href="#DejaVuSans-20" x="152.539062"/>
     <use xlink:href="#DejaVuSans-65" x="184.326172"/>
     <use xlink:href="#DejaVuSans-61" x="245.849609"/>
     <use xlink:href="#DejaVuSans-73" x="307.128906"/>
     <use xlink:href="#DejaVuSans-74" x="359.228516"/>
    </g>
   </g>
   <g id="patch_39">
    <path d="M 642.02364 266.232865 
C 646.945241 266.232865 651.665928 264.277492 655.146026 260.797394 
C 658.626123 257.317297 660.581496 252.596609 660.581496 247.675008 
C 660.581496 242.753408 658.626123 238.03272 655.146026 234.552623 
C 651.665928 231.072525 646.945241 229.117153 642.02364 229.117153 
C 637.102039 229.117153 632.381352 231.072525 628.901254 234.552623 
C 625.421157 238.03272 623.465784 242.753408 623.465784 247.675008 
C 623.465784 252.596609 625.421157 257.317297 628.901254 260.797394 
C 632.381352 264.277492 637.102039 266.232865 642.02364 266.232865 
z
" clip-path="url(#p1846a00415)" style="fill: #ffffff; stroke: #59a14f; stroke-width: 1.7; stroke-linejoin: miter"/>
   </g>
   <g id="text_12">
    <!-- lab west -->
    <g transform="translate(625.26614 281.697744) scale(0.08 -0.08)">
     <use xlink:href="#DejaVuSans-6c"/>
     <use xlink:href="#DejaVuSans-61" x="27.783203"/>
     <use xlink:href="#DejaVuSans-62" x="89.0625"/>
     <use xlink:href="#DejaVuSans-20" x="152.539062"/>
     <use xlink:href="#DejaVuSans-77" x="184.326172"/>
     <use xlink:href="#DejaVuSans-65" x="266.113281"/>
     <use xlink:href="#DejaVuSans-73" x="327.636719"/>
     <use xlink:href="#DejaVuSans-74" x="379.736328"/>
    </g>
   </g>
   <g id="patch_40">
    <path d="M 796.67244 111.584065 
C 801.594041 111.584065 806.314728 109.628692 809.794826 106.148594 
C 813.274923 102.668497 815.230296 97.947809 815.230296 93.026209 
C 815.230296 88.104608 813.274923 83.38392 809.794826 79.903823 
C 806.314728 76.423725 801.594041 74.468353 796.67244 74.468353 
C 791.750839 74.468353 787.030152 76.423725 783.550054 79.903823 
C 780.069957 83.38392 778.114584 88.104608 778.114584 93.026209 
C 778.114584 97.947809 780.069957 102.668497 783.550054 106.148594 
C 787.030152 109.628692 791.750839 111.584065 796.67244 111.584065 
z
" clip-path="url(#p1846a00415)" style="fill: #ffffff; stroke: #b279a2; stroke-width: 1.7; stroke-linejoin: miter"/>
   </g>
   <g id="text_13">
    <!-- payer east -->
    <g transform="translate(775.373065 127.048945) scale(0.08 -0.08)">
     <use xlink:href="#DejaVuSans-70"/>
     <use xlink:href="#DejaVuSans-61" x="63.476562"/>
     <use xlink:href="#DejaVuSans-79" x="124.755859"/>
     <use xlink:href="#DejaVuSans-65" x="183.935547"/>
     <use xlink:href="#DejaVuSans-72" x="245.458984"/>
     <use xlink:href="#DejaVuSans-20" x="286.572266"/>
     <use xlink:href="#DejaVuSans-65" x="318.359375"/>
     <use xlink:href="#DejaVuSans-61" x="379.882812"/>
     <use xlink:href="#DejaVuSans-73" x="441.162109"/>
     <use xlink:href="#DejaVuSans-74" x="493.261719"/>
    </g>
   </g>
   <g id="patch_41">
    <path d="M 796.67244 266.232865 
C 801.594041 266.232865 806.314728 264.277492 809.794826 260.797394 
C 813.274923 257.317297 815.230296 252.596609 815.230296 247.675008 
C 815.230296 242.753408 813.274923 238.03272 809.794826 234.552623 
C 806.314728 231.072525 801.594041 229.117153 796.67244 229.117153 
C 791.750839 229.117153 787.030152 231.072525 783.550054 234.552623 
C 780.069957 238.03272 778.114584 242.753408 778.114584 247.675008 
C 778.114584 252.596609 780.069957 257.317297 783.550054 260.797394 
C 787.030152 264.277492 791.750839 266.232865 796.67244 266.232865 
z
" clip-path="url(#p1846a00415)" style="fill: #ffffff; stroke: #b279a2; stroke-width: 1.7; stroke-linejoin: miter"/>
   </g>
   <g id="text_14">
    <!-- payer west -->
    <g transform="translate(774.553065 281.697744) scale(0.08 -0.08)">
     <use xlink:href="#DejaVuSans-70"/>
     <use xlink:href="#DejaVuSans-61" x="63.476562"/>
     <use xlink:href="#DejaVuSans-79" x="124.755859"/>
     <use xlink:href="#DejaVuSans-65" x="183.935547"/>
     <use xlink:href="#DejaVuSans-72" x="245.458984"/>
     <use xlink:href="#DejaVuSans-20" x="286.572266"/>
     <use xlink:href="#DejaVuSans-77" x="318.359375"/>
     <use xlink:href="#DejaVuSans-65" x="400.146484"/>
     <use xlink:href="#DejaVuSans-73" x="461.669922"/>
     <use xlink:href="#DejaVuSans-74" x="513.769531"/>
    </g>
   </g>
   <g id="text_15">
    <!-- Selected owner: clinic_east, clinic_west -->
    <g transform="translate(542.321218 303.348576) scale(0.09 -0.09)">
     <defs>
      <path id="DejaVuSans-Bold-69" d="M 538 3500 
L 1656 3500 
L 1656 0 
L 538 0 
L 538 3500 
z
M 538 4863 
L 1656 4863 
L 1656 3950 
L 538 3950 
L 538 4863 
z
" transform="scale(0.015625)"/>
      <path id="DejaVuSans-Bold-5f" d="M 3200 -916 
L 3200 -1509 
L 0 -1509 
L 0 -916 
L 3200 -916 
z
" transform="scale(0.015625)"/>
      <path id="DejaVuSans-Bold-73" d="M 3272 3391 
L 3272 2541 
Q 2913 2691 2578 2766 
Q 2244 2841 1947 2841 
Q 1628 2841 1473 2761 
Q 1319 2681 1319 2516 
Q 1319 2381 1436 2309 
Q 1553 2238 1856 2203 
L 2053 2175 
Q 2913 2066 3209 1816 
Q 3506 1566 3506 1031 
Q 3506 472 3093 190 
Q 2681 -91 1863 -91 
Q 1516 -91 1145 -36 
Q 775 19 384 128 
L 384 978 
Q 719 816 1070 734 
Q 1422 653 1784 653 
Q 2113 653 2278 743 
Q 2444 834 2444 1013 
Q 2444 1163 2330 1236 
Q 2216 1309 1875 1350 
L 1678 1375 
Q 931 1469 631 1722 
Q 331 1975 331 2491 
Q 331 3047 712 3315 
Q 1094 3584 1881 3584 
Q 2191 3584 2531 3537 
Q 2872 3491 3272 3391 
z
" transform="scale(0.015625)"/>
      <path id="DejaVuSans-Bold-2c" d="M 653 1209 
L 1778 1209 
L 1778 256 
L 1006 -909 
L 341 -909 
L 653 256 
L 653 1209 
z
" transform="scale(0.015625)"/>
     </defs>
     <use xlink:href="#DejaVuSans-Bold-53"/>
     <use xlink:href="#DejaVuSans-Bold-65" x="72.021484"/>
     <use xlink:href="#DejaVuSans-Bold-6c" x="139.84375"/>
     <use xlink:href="#DejaVuSans-Bold-65" x="174.121094"/>
     <use xlink:href="#DejaVuSans-Bold-63" x="241.943359"/>
     <use xlink:href="#DejaVuSans-Bold-74" x="301.220703"/>
     <use xlink:href="#DejaVuSans-Bold-65" x="349.023438"/>
     <use xlink:href="#DejaVuSans-Bold-64" x="416.845703"/>
     <use xlink:href="#DejaVuSans-Bold-20" x="488.427734"/>
     <use xlink:href="#DejaVuSans-Bold-6f" x="523.242188"/>
     <use xlink:href="#DejaVuSans-Bold-77" x="591.943359"/>
     <use xlink:href="#DejaVuSans-Bold-6e" x="684.326172"/>
     <use xlink:href="#DejaVuSans-Bold-65" x="755.517578"/>
     <use xlink:href="#DejaVuSans-Bold-72" x="823.339844"/>
     <use xlink:href="#DejaVuSans-Bold-3a" x="872.65625"/>
     <use xlink:href="#DejaVuSans-Bold-20" x="912.646484"/>
     <use xlink:href="#DejaVuSans-Bold-63" x="947.460938"/>
     <use xlink:href="#DejaVuSans-Bold-6c" x="1006.738281"/>
     <use xlink:href="#DejaVuSans-Bold-69" x="1041.015625"/>
     <use xlink:href="#DejaVuSans-Bold-6e" x="1075.292969"/>
     <use xlink:href="#DejaVuSans-Bold-69" x="1146.484375"/>
     <use xlink:href="#DejaVuSans-Bold-63" x="1180.761719"/>
     <use xlink:href="#DejaVuSans-Bold-5f" x="1240.039062"/>
     <use xlink:href="#DejaVuSans-Bold-65" x="1290.039062"/>
     <use xlink:href="#DejaVuSans-Bold-61" x="1357.861328"/>
     <use xlink:href="#DejaVuSans-Bold-73" x="1425.341797"/>
     <use xlink:href="#DejaVuSans-Bold-74" x="1484.863281"/>
     <use xlink:href="#DejaVuSans-Bold-2c" x="1532.666016"/>
     <use xlink:href="#DejaVuSans-Bold-20" x="1570.654297"/>
     <use xlink:href="#DejaVuSans-Bold-63" x="1605.46875"/>
     <use xlink:href="#DejaVuSans-Bold-6c" x="1664.746094"/>
     <use xlink:href="#DejaVuSans-Bold-69" x="1699.023438"/>
     <use xlink:href="#DejaVuSans-Bold-6e" x="1733.300781"/>
     <use xlink:href="#DejaVuSans-Bold-69" x="1804.492188"/>
     <use xlink:href="#DejaVuSans-Bold-63" x="1838.769531"/>
     <use xlink:href="#DejaVuSans-Bold-5f" x="1898.046875"/>
     <use xlink:href="#DejaVuSans-Bold-77" x="1948.046875"/>
     <use xlink:href="#DejaVuSans-Bold-65" x="2040.429688"/>
     <use xlink:href="#DejaVuSans-Bold-73" x="2108.251953"/>
     <use xlink:href="#DejaVuSans-Bold-74" x="2167.773438"/>
    </g>
   </g>
   <g id="text_16">
    <!-- B. Concentrated within types -->
    <g transform="translate(554.74614 37.538592) scale(0.12 -0.12)">
     <defs>
      <path id="DejaVuSans-42" d="M 1259 2228 
L 1259 519 
L 2272 519 
Q 2781 519 3026 730 
Q 3272 941 3272 1375 
Q 3272 1813 3026 2020 
Q 2781 2228 2272 2228 
L 1259 2228 
z
M 1259 4147 
L 1259 2741 
L 2194 2741 
Q 2656 2741 2882 2914 
Q 3109 3088 3109 3444 
Q 3109 3797 2882 3972 
Q 2656 4147 2194 4147 
L 1259 4147 
z
M 628 4666 
L 2241 4666 
Q 2963 4666 3353 4366 
Q 3744 4066 3744 3513 
Q 3744 3084 3544 2831 
Q 3344 2578 2956 2516 
Q 3422 2416 3680 2098 
Q 3938 1781 3938 1306 
Q 3938 681 3513 340 
Q 3088 0 2303 0 
L 628 0 
L 628 4666 
z
" transform="scale(0.015625)"/>
      <path id="DejaVuSans-64" d="M 2906 2969 
L 2906 4863 
L 3481 4863 
L 3481 0 
L 2906 0 
L 2906 525 
Q 2725 213 2448 61 
Q 2172 -91 1784 -91 
Q 1150 -91 751 415 
Q 353 922 353 1747 
Q 353 2572 751 3078 
Q 1150 3584 1784 3584 
Q 2172 3584 2448 3432 
Q 2725 3281 2906 2969 
z
M 947 1747 
Q 947 1113 1208 752 
Q 1469 391 1925 391 
Q 2381 391 2643 752 
Q 2906 1113 2906 1747 
Q 2906 2381 2643 2742 
Q 2381 3103 1925 3103 
Q 1469 3103 1208 2742 
Q 947 2381 947 1747 
z
" transform="scale(0.015625)"/>
      <path id="DejaVuSans-68" d="M 3513 2113 
L 3513 0 
L 2938 0 
L 2938 2094 
Q 2938 2591 2744 2837 
Q 2550 3084 2163 3084 
Q 1697 3084 1428 2787 
Q 1159 2491 1159 1978 
L 1159 0 
L 581 0 
L 581 4863 
L 1159 4863 
L 1159 2956 
Q 1366 3272 1645 3428 
Q 1925 3584 2291 3584 
Q 2894 3584 3203 3211 
Q 3513 2838 3513 2113 
z
" transform="scale(0.015625)"/>
     </defs>
     <use xlink:href="#DejaVuSans-42"/>
     <use xlink:href="#DejaVuSans-2e" x="68.603516"/>
     <use xlink:href="#DejaVuSans-20" x="100.390625"/>
     <use xlink:href="#DejaVuSans-43" x="132.177734"/>
     <use xlink:href="#DejaVuSans-6f" x="202.001953"/>
     <use xlink:href="#DejaVuSans-6e" x="263.183594"/>
     <use xlink:href="#DejaVuSans-63" x="326.5625"/>
     <use xlink:href="#DejaVuSans-65" x="381.542969"/>
     <use xlink:href="#DejaVuSans-6e" x="443.066406"/>
     <use xlink:href="#DejaVuSans-74" x="506.445312"/>
     <use xlink:href="#DejaVuSans-72" x="545.654297"/>
     <use xlink:href="#DejaVuSans-61" x="586.767578"/>
     <use xlink:href="#DejaVuSans-74" x="648.046875"/>
     <use xlink:href="#DejaVuSans-65" x="687.255859"/>
     <use xlink:href="#DejaVuSans-64" x="748.779297"/>
     <use xlink:href="#DejaVuSans-20" x="812.255859"/>
     <use xlink:href="#DejaVuSans-77" x="844.042969"/>
     <use xlink:href="#DejaVuSans-69" x="925.830078"/>
     <use xlink:href="#DejaVuSans-74" x="953.613281"/>
     <use xlink:href="#DejaVuSans-68" x="992.822266"/>
     <use xlink:href="#DejaVuSans-69" x="1056.201172"/>
     <use xlink:href="#DejaVuSans-6e" x="1083.984375"/>
     <use xlink:href="#DejaVuSans-20" x="1147.363281"/>
     <use xlink:href="#DejaVuSans-74" x="1179.150391"/>
     <use xlink:href="#DejaVuSans-79" x="1218.359375"/>
     <use xlink:href="#DejaVuSans-70" x="1277.539062"/>
     <use xlink:href="#DejaVuSans-65" x="1341.015625"/>
     <use xlink:href="#DejaVuSans-73" x="1402.539062"/>
    </g>
   </g>
  </g>
  <g id="text_17">
   <!-- Equal aggregate learning can imply different firm boundaries -->
   <g transform="translate(185.792416 17.837812) scale(0.14 -0.14)">
    <defs>
     <path id="DejaVuSans-Bold-45" d="M 588 4666 
L 3834 4666 
L 3834 3756 
L 1791 3756 
L 1791 2888 
L 3713 2888 
L 3713 1978 
L 1791 1978 
L 1791 909 
L 3903 909 
L 3903 0 
L 588 0 
L 588 4666 
z
" transform="scale(0.015625)"/>
     <path id="DejaVuSans-Bold-71" d="M 2181 2772 
Q 1825 2772 1636 2509 
Q 1447 2247 1447 1747 
Q 1447 1247 1636 984 
Q 1825 722 2181 722 
Q 2541 722 2730 984 
Q 2919 1247 2919 1747 
Q 2919 2247 2730 2509 
Q 2541 2772 2181 2772 
z
M 2919 506 
Q 2688 197 2409 53 
Q 2131 -91 1766 -91 
Q 1119 -91 703 423 
Q 288 938 288 1747 
Q 288 2556 703 3067 
Q 1119 3578 1766 3578 
Q 2131 3578 2409 3434 
Q 2688 3291 2919 2981 
L 2919 3500 
L 4044 3500 
L 4044 -1331 
L 2919 -1331 
L 2919 506 
z
" transform="scale(0.015625)"/>
     <path id="DejaVuSans-Bold-67" d="M 2919 594 
Q 2688 288 2409 144 
Q 2131 0 1766 0 
Q 1125 0 706 504 
Q 288 1009 288 1791 
Q 288 2575 706 3076 
Q 1125 3578 1766 3578 
Q 2131 3578 2409 3434 
Q 2688 3291 2919 2981 
L 2919 3500 
L 4044 3500 
L 4044 353 
Q 4044 -491 3511 -936 
Q 2978 -1381 1966 -1381 
Q 1638 -1381 1331 -1331 
Q 1025 -1281 716 -1178 
L 716 -306 
Q 1009 -475 1290 -558 
Q 1572 -641 1856 -641 
Q 2406 -641 2662 -400 
Q 2919 -159 2919 353 
L 2919 594 
z
M 2181 2772 
Q 1834 2772 1640 2515 
Q 1447 2259 1447 1791 
Q 1447 1309 1634 1061 
Q 1822 813 2181 813 
Q 2531 813 2725 1069 
Q 2919 1325 2919 1791 
Q 2919 2259 2725 2515 
Q 2531 2772 2181 2772 
z
" transform="scale(0.015625)"/>
     <path id="DejaVuSans-Bold-79" d="M 78 3500 
L 1197 3500 
L 2138 1125 
L 2938 3500 
L 4056 3500 
L 2584 -331 
Q 2363 -916 2067 -1148 
Q 1772 -1381 1288 -1381 
L 641 -1381 
L 641 -647 
L 991 -647 
Q 1275 -647 1404 -556 
Q 1534 -466 1606 -231 
L 1638 -134 
L 78 3500 
z
" transform="scale(0.015625)"/>
     <path id="DejaVuSans-Bold-62" d="M 2400 722 
Q 2759 722 2948 984 
Q 3138 1247 3138 1747 
Q 3138 2247 2948 2509 
Q 2759 2772 2400 2772 
Q 2041 2772 1848 2508 
Q 1656 2244 1656 1747 
Q 1656 1250 1848 986 
Q 2041 722 2400 722 
z
M 1656 2988 
Q 1888 3294 2169 3439 
Q 2450 3584 2816 3584 
Q 3463 3584 3878 3070 
Q 4294 2556 4294 1747 
Q 4294 938 3878 423 
Q 3463 -91 2816 -91 
Q 2450 -91 2169 54 
Q 1888 200 1656 506 
L 1656 0 
L 538 0 
L 538 4863 
L 1656 4863 
L 1656 2988 
z
" transform="scale(0.015625)"/>
    </defs>
    <use xlink:href="#DejaVuSans-Bold-45"/>
    <use xlink:href="#DejaVuSans-Bold-71" x="68.310547"/>
    <use xlink:href="#DejaVuSans-Bold-75" x="139.892578"/>
    <use xlink:href="#DejaVuSans-Bold-61" x="211.083984"/>
    <use xlink:href="#DejaVuSans-Bold-6c" x="278.564453"/>
    <use xlink:href="#DejaVuSans-Bold-20" x="312.841797"/>
    <use xlink:href="#DejaVuSans-Bold-61" x="347.65625"/>
    <use xlink:href="#DejaVuSans-Bold-67" x="415.136719"/>
    <use xlink:href="#DejaVuSans-Bold-67" x="486.71875"/>
    <use xlink:href="#DejaVuSans-Bold-72" x="558.300781"/>
    <use xlink:href="#DejaVuSans-Bold-65" x="607.617188"/>
    <use xlink:href="#DejaVuSans-Bold-67" x="675.439453"/>
    <use xlink:href="#DejaVuSans-Bold-61" x="747.021484"/>
    <use xlink:href="#DejaVuSans-Bold-74" x="814.501953"/>
    <use xlink:href="#DejaVuSans-Bold-65" x="862.304688"/>
    <use xlink:href="#DejaVuSans-Bold-20" x="930.126953"/>
    <use xlink:href="#DejaVuSans-Bold-6c" x="964.941406"/>
    <use xlink:href="#DejaVuSans-Bold-65" x="999.21875"/>
    <use xlink:href="#DejaVuSans-Bold-61" x="1067.041016"/>
    <use xlink:href="#DejaVuSans-Bold-72" x="1134.521484"/>
    <use xlink:href="#DejaVuSans-Bold-6e" x="1183.837891"/>
    <use xlink:href="#DejaVuSans-Bold-69" x="1255.029297"/>
    <use xlink:href="#DejaVuSans-Bold-6e" x="1289.306641"/>
    <use xlink:href="#DejaVuSans-Bold-67" x="1360.498047"/>
    <use xlink:href="#DejaVuSans-Bold-20" x="1432.080078"/>
    <use xlink:href="#DejaVuSans-Bold-63" x="1466.894531"/>
    <use xlink:href="#DejaVuSans-Bold-61" x="1526.171875"/>
    <use xlink:href="#DejaVuSans-Bold-6e" x="1593.652344"/>
    <use xlink:href="#DejaVuSans-Bold-20" x="1664.84375"/>
    <use xlink:href="#DejaVuSans-Bold-69" x="1699.658203"/>
    <use xlink:href="#DejaVuSans-Bold-6d" x="1733.935547"/>
    <use xlink:href="#DejaVuSans-Bold-70" x="1838.134766"/>
    <use xlink:href="#DejaVuSans-Bold-6c" x="1909.716797"/>
    <use xlink:href="#DejaVuSans-Bold-79" x="1943.994141"/>
    <use xlink:href="#DejaVuSans-Bold-20" x="2009.179688"/>
    <use xlink:href="#DejaVuSans-Bold-64" x="2043.994141"/>
    <use xlink:href="#DejaVuSans-Bold-69" x="2115.576172"/>
    <use xlink:href="#DejaVuSans-Bold-66" x="2149.853516"/>
    <use xlink:href="#DejaVuSans-Bold-66" x="2193.359375"/>
    <use xlink:href="#DejaVuSans-Bold-65" x="2236.865234"/>
    <use xlink:href="#DejaVuSans-Bold-72" x="2304.6875"/>
    <use xlink:href="#DejaVuSans-Bold-65" x="2354.003906"/>
    <use xlink:href="#DejaVuSans-Bold-6e" x="2421.826172"/>
    <use xlink:href="#DejaVuSans-Bold-74" x="2493.017578"/>
    <use xlink:href="#DejaVuSans-Bold-20" x="2540.820312"/>
    <use xlink:href="#DejaVuSans-Bold-66" x="2575.634766"/>
    <use xlink:href="#DejaVuSans-Bold-69" x="2619.140625"/>
    <use xlink:href="#DejaVuSans-Bold-72" x="2653.417969"/>
    <use xlink:href="#DejaVuSans-Bold-6d" x="2702.734375"/>
    <use xlink:href="#DejaVuSans-Bold-20" x="2806.933594"/>
    <use xlink:href="#DejaVuSans-Bold-62" x="2841.748047"/>
    <use xlink:href="#DejaVuSans-Bold-6f" x="2913.330078"/>
    <use xlink:href="#DejaVuSans-Bold-75" x="2982.03125"/>
    <use xlink:href="#DejaVuSans-Bold-6e" x="3053.222656"/>
    <use xlink:href="#DejaVuSans-Bold-64" x="3124.414062"/>
    <use xlink:href="#DejaVuSans-Bold-61" x="3195.996094"/>
    <use xlink:href="#DejaVuSans-Bold-72" x="3263.476562"/>
    <use xlink:href="#DejaVuSans-Bold-69" x="3312.792969"/>
    <use xlink:href="#DejaVuSans-Bold-65" x="3347.070312"/>
    <use xlink:href="#DejaVuSans-Bold-73" x="3414.892578"/>
   </g>
  </g>
  <g id="legend_1">
   <g id="line2d_1">
    <path d="M 255.51851 337.420073 
L 265.51851 337.420073 
L 275.51851 337.420073 
" style="fill: none; stroke: #000000; stroke-opacity: 0; stroke-width: 1.5; stroke-linecap: square"/>
    <defs>
     <path id="m0c58c6900f" d="M 0 4.5 
C 1.193414 4.5 2.338109 4.025852 3.181981 3.181981 
C 4.025852 2.338109 4.5 1.193414 4.5 0 
C 4.5 -1.193414 4.025852 -2.338109 3.181981 -3.181981 
C 2.338109 -4.025852 1.193414 -4.5 0 -4.5 
C -1.193414 -4.5 -2.338109 -4.025852 -3.181981 -3.181981 
C -4.025852 -2.338109 -4.5 -1.193414 -4.5 0 
C -4.5 1.193414 -4.025852 2.338109 -3.181981 3.181981 
C -2.338109 4.025852 -1.193414 4.5 0 4.5 
z
" style="stroke: #4c78a8"/>
    </defs>
    <g>
     <use xlink:href="#m0c58c6900f" x="265.51851" y="337.420073" style="fill: #4c78a8; stroke: #4c78a8"/>
    </g>
   </g>
   <g id="text_18">
    <!-- Clinic -->
    <g transform="translate(283.51851 340.920073) scale(0.1 -0.1)">
     <use xlink:href="#DejaVuSans-43"/>
     <use xlink:href="#DejaVuSans-6c" x="69.824219"/>
     <use xlink:href="#DejaVuSans-69" x="97.607422"/>
     <use xlink:href="#DejaVuSans-6e" x="125.390625"/>
     <use xlink:href="#DejaVuSans-69" x="188.769531"/>
     <use xlink:href="#DejaVuSans-63" x="216.552734"/>
    </g>
   </g>
   <g id="line2d_2">
    <path d="M 330.671635 337.420073 
L 340.671635 337.420073 
L 350.671635 337.420073 
" style="fill: none; stroke: #000000; stroke-opacity: 0; stroke-width: 1.5; stroke-linecap: square"/>
    <defs>
     <path id="m0f9c29022b" d="M 0 4.5 
C 1.193414 4.5 2.338109 4.025852 3.181981 3.181981 
C 4.025852 2.338109 4.5 1.193414 4.5 0 
C 4.5 -1.193414 4.025852 -2.338109 3.181981 -3.181981 
C 2.338109 -4.025852 1.193414 -4.5 0 -4.5 
C -1.193414 -4.5 -2.338109 -4.025852 -3.181981 -3.181981 
C -4.025852 -2.338109 -4.5 -1.193414 -4.5 0 
C -4.5 1.193414 -4.025852 2.338109 -3.181981 3.181981 
C -2.338109 4.025852 -1.193414 4.5 0 4.5 
z
" style="stroke: #59a14f"/>
    </defs>
    <g>
     <use xlink:href="#m0f9c29022b" x="340.671635" y="337.420073" style="fill: #59a14f; stroke: #59a14f"/>
    </g>
   </g>
   <g id="text_19">
    <!-- Lab -->
    <g transform="translate(358.671635 340.920073) scale(0.1 -0.1)">
     <defs>
      <path id="DejaVuSans-4c" d="M 628 4666 
L 1259 4666 
L 1259 531 
L 3531 531 
L 3531 0 
L 628 0 
L 628 4666 
z
" transform="scale(0.015625)"/>
     </defs>
     <use xlink:href="#DejaVuSans-4c"/>
     <use xlink:href="#DejaVuSans-61" x="55.712891"/>
     <use xlink:href="#DejaVuSans-62" x="116.992188"/>
    </g>
   </g>
   <g id="line2d_3">
    <path d="M 396.720072 337.420073 
L 406.720072 337.420073 
L 416.720072 337.420073 
" style="fill: none; stroke: #000000; stroke-opacity: 0; stroke-width: 1.5; stroke-linecap: square"/>
    <defs>
     <path id="mdce8b46c03" d="M 0 4.5 
C 1.193414 4.5 2.338109 4.025852 3.181981 3.181981 
C 4.025852 2.338109 4.5 1.193414 4.5 0 
C 4.5 -1.193414 4.025852 -2.338109 3.181981 -3.181981 
C 2.338109 -4.025852 1.193414 -4.5 0 -4.5 
C -1.193414 -4.5 -2.338109 -4.025852 -3.181981 -3.181981 
C -4.025852 -2.338109 -4.5 -1.193414 -4.5 0 
C -4.5 1.193414 -4.025852 2.338109 -3.181981 3.181981 
C -2.338109 4.025852 -1.193414 4.5 0 4.5 
z
" style="stroke: #b279a2"/>
    </defs>
    <g>
     <use xlink:href="#mdce8b46c03" x="406.720072" y="337.420073" style="fill: #b279a2; stroke: #b279a2"/>
    </g>
   </g>
   <g id="text_20">
    <!-- Payer -->
    <g transform="translate(424.720072 340.920073) scale(0.1 -0.1)">
     <defs>
      <path id="DejaVuSans-50" d="M 1259 4147 
L 1259 2394 
L 2053 2394 
Q 2494 2394 2734 2622 
Q 2975 2850 2975 3272 
Q 2975 3691 2734 3919 
Q 2494 4147 2053 4147 
L 1259 4147 
z
M 628 4666 
L 2053 4666 
Q 2838 4666 3239 4311 
Q 3641 3956 3641 3272 
Q 3641 2581 3239 2228 
Q 2838 1875 2053 1875 
L 1259 1875 
L 1259 0 
L 628 0 
L 628 4666 
z
" transform="scale(0.015625)"/>
     </defs>
     <use xlink:href="#DejaVuSans-50"/>
     <use xlink:href="#DejaVuSans-61" x="55.802734"/>
     <use xlink:href="#DejaVuSans-79" x="117.082031"/>
     <use xlink:href="#DejaVuSans-65" x="176.261719"/>
     <use xlink:href="#DejaVuSans-72" x="237.785156"/>
    </g>
   </g>
   <g id="line2d_4">
    <path d="M 472.610697 337.420073 
L 482.610697 337.420073 
L 492.610697 337.420073 
" style="fill: none; stroke: #000000; stroke-opacity: 0; stroke-width: 1.5; stroke-linecap: square"/>
    <defs>
     <path id="mc7abc7e85c" d="M 0 4.5 
C 1.193414 4.5 2.338109 4.025852 3.181981 3.181981 
C 4.025852 2.338109 4.5 1.193414 4.5 0 
C 4.5 -1.193414 4.025852 -2.338109 3.181981 -3.181981 
C 2.338109 -4.025852 1.193414 -4.5 0 -4.5 
C -1.193414 -4.5 -2.338109 -4.025852 -3.181981 -3.181981 
C -4.025852 -2.338109 -4.5 -1.193414 -4.5 0 
C -4.5 1.193414 -4.025852 2.338109 -3.181981 3.181981 
C -2.338109 4.025852 -1.193414 4.5 0 4.5 
z
" style="stroke: #555555; stroke-width: 2.5"/>
    </defs>
    <g>
     <use xlink:href="#mc7abc7e85c" x="482.610697" y="337.420073" style="fill: #555555; stroke: #555555; stroke-width: 2.5"/>
    </g>
   </g>
   <g id="text_21">
    <!-- Filled node = owned -->
    <g transform="translate(500.610697 340.920073) scale(0.1 -0.1)">
     <defs>
      <path id="DejaVuSans-46" d="M 628 4666 
L 3309 4666 
L 3309 4134 
L 1259 4134 
L 1259 2759 
L 3109 2759 
L 3109 2228 
L 1259 2228 
L 1259 0 
L 628 0 
L 628 4666 
z
" transform="scale(0.015625)"/>
      <path id="DejaVuSans-3d" d="M 678 2906 
L 4684 2906 
L 4684 2381 
L 678 2381 
L 678 2906 
z
M 678 1631 
L 4684 1631 
L 4684 1100 
L 678 1100 
L 678 1631 
z
" transform="scale(0.015625)"/>
     </defs>
     <use xlink:href="#DejaVuSans-46"/>
     <use xlink:href="#DejaVuSans-69" x="50.269531"/>
     <use xlink:href="#DejaVuSans-6c" x="78.052734"/>
     <use xlink:href="#DejaVuSans-6c" x="105.835938"/>
     <use xlink:href="#DejaVuSans-65" x="133.619141"/>
     <use xlink:href="#DejaVuSans-64" x="195.142578"/>
     <use xlink:href="#DejaVuSans-20" x="258.619141"/>
     <use xlink:href="#DejaVuSans-6e" x="290.40625"/>
     <use xlink:href="#DejaVuSans-6f" x="353.785156"/>
     <use xlink:href="#DejaVuSans-64" x="414.966797"/>
     <use xlink:href="#DejaVuSans-65" x="478.443359"/>
     <use xlink:href="#DejaVuSans-20" x="539.966797"/>
     <use xlink:href="#DejaVuSans-3d" x="571.753906"/>
     <use xlink:href="#DejaVuSans-20" x="655.542969"/>
     <use xlink:href="#DejaVuSans-6f" x="687.330078"/>
     <use xlink:href="#DejaVuSans-77" x="748.511719"/>
     <use xlink:href="#DejaVuSans-6e" x="830.298828"/>
     <use xlink:href="#DejaVuSans-65" x="893.677734"/>
     <use xlink:href="#DejaVuSans-64" x="955.201172"/>
    </g>
   </g>
  </g>
 </g>
 <defs>
  <clipPath id="p8a1217b987">
   <rect x="7.2" y="43.538593" width="417.55176" height="262.90296"/>
  </clipPath>
  <clipPath id="p1846a00415">
   <rect x="433.24776" y="43.538592" width="417.55176" height="262.90296"/>
  </clipPath>
 </defs>
</svg>
